sh_-0.1_80rpm
version=1
nRows=14
nColumns=49
inDegrees=yes
endheader
time	/jointset/bb/crank_angle/value	/jointset/bb/crank_angle/speed	/jointset/spindle/pedal_angle_r/value	/jointset/spindle/pedal_angle_r/speed	/jointset/ground_pelvis/pelvis_tilt/value	/jointset/ground_pelvis/pelvis_tilt/speed	/jointset/ground_pelvis/pelvis_list/value	/jointset/ground_pelvis/pelvis_list/speed	/jointset/ground_pelvis/pelvis_rotation/value	/jointset/ground_pelvis/pelvis_rotation/speed	/jointset/ground_pelvis/pelvis_tx/value	/jointset/ground_pelvis/pelvis_tx/speed	/jointset/ground_pelvis/pelvis_ty/value	/jointset/ground_pelvis/pelvis_ty/speed	/jointset/ground_pelvis/pelvis_tz/value	/jointset/ground_pelvis/pelvis_tz/speed	/jointset/hip_r/hip_angle_r/value	/jointset/hip_r/hip_angle_r/speed	/jointset/hip_r/hip_adduction_r/value	/jointset/hip_r/hip_adduction_r/speed	/jointset/hip_r/hip_rotation_r/value	/jointset/hip_r/hip_rotation_r/speed	/jointset/knee_r/knee_angle_r/value	/jointset/knee_r/knee_angle_r/speed	/jointset/knee_r/tib_tx_r/value	/jointset/knee_r/tib_tx_r/speed	/jointset/knee_r/tib_ty_r/value	/jointset/knee_r/tib_ty_r/speed	/jointset/tib_pat_r/pat_angle_r/value	/jointset/tib_pat_r/pat_angle_r/speed	/jointset/tib_pat_r/pat_tx_r/value	/jointset/tib_pat_r/pat_tx_r/speed	/jointset/tib_pat_r/pat_ty_r/value	/jointset/tib_pat_r/pat_ty_r/speed	/jointset/ankle_r/ankle_angle_r/value	/jointset/ankle_r/ankle_angle_r/speed	/jointset/subtalar_r/subtalar_angle_r/value	/jointset/subtalar_r/subtalar_angle_r/speed	/jointset/mtp_r/mtp_angle_r/value	/jointset/mtp_r/mtp_angle_r/speed	/forceset/bifemlh_r/activation	/forceset/bifemlh_r/fiber_length	/forceset/bifemsh_r/activation	/forceset/bifemsh_r/fiber_length	/forceset/glut_max2_r/activation	/forceset/glut_max2_r/fiber_length	/forceset/vas_int_r/activation	/forceset/vas_int_r/fiber_length
      0.00000000	      0.00000000	   -480.00000000	     -6.79737203	    616.97265612	     -0.00000000	     -0.00000000	      0.00000000	     -0.00000000	      0.00000000	     -0.00000000	     -0.10000000	      0.00000000	     -0.10000000	      0.00000000	     -0.00000000	      0.00000000	     87.20714284	     77.38455828	      3.99401178	      0.89227372	     -4.80368314	     13.08657806	   -124.30455120	    106.64939633	     -0.00538438	      0.04034481	     -0.49739264	      0.03353990	     17.64636237	      0.09068110	      0.01723500	      0.05464697	     -0.02496909	      0.00890726	     31.08606363	    -48.34932196	      0.00000000	      0.00000000	     -0.00000000	     -0.00000000	      0.05000000	      0.10000000	      0.05000000	      0.10000000	      0.05000000	      0.10000000	      0.05000000	      0.10000000
      0.01000000	     -4.80000000	   -480.00000000	     -0.65537704	    611.32429525	     -0.00000000	     -0.00000000	     -0.00000000	     -0.00000000	     -0.00000000	     -0.00000000	     -0.10000000	      0.00000000	     -0.10000000	      0.00000000	      0.00000000	      0.00000000	     87.88703633	     58.42125835	      4.00403510	      1.11357535	     -4.66277780	     15.04621273	   -123.14128230	    125.82149020	     -0.00494432	      0.04759749	     -0.49702681	      0.03956929	     17.64735147	      0.10698262	      0.01783106	      0.06447072	     -0.02487193	      0.01050850	     30.57111020	    -54.38171322	     -0.00000000	     -0.00000000	     -0.00000000	     -0.00000000	      0.05000000	      0.10000000	      0.05000000	      0.10000000	      0.05000000	      0.10000000	      0.05000000	      0.10000000
      0.02773396	    -13.31230289	   -480.00000000	     10.08920141	    600.28932170	     -0.00000000	     -0.00000000	      0.00000000	      0.00000000	     -0.00000000	     -0.00000000	     -0.10000000	      0.00000000	     -0.10000000	      0.00000000	      0.00000000	      0.00000000	     88.61091416	     22.94802129	      4.02729517	      1.50662519	     -4.37014543	     17.80505489	   -120.62844144	    156.92414563	     -0.00399373	      0.05936343	     -0.49623655	      0.04935069	     17.64948807	      0.13342836	      0.01911863	      0.08040767	     -0.02466206	      0.01310617	     29.53857340	    -61.26964109	      0.00000000	      0.00000000	     -0.00000000	      0.00000000	      0.05000000	      0.10000000	      0.05000000	      0.10000000	      0.05000000	      0.10000000	      0.05000000	      0.10000000
      0.04546793	    -21.82460579	   -480.00000000	     20.63483147	    589.07306394	     -0.00000000	     -0.00000000	      0.00000000	      0.00000000	     -0.00000000	      0.00000000	     -0.10000000	      0.00000000	     -0.10000000	     -0.00000000	      0.00000000	     -0.00000000	     88.70099475	    -12.64261458	      4.05702080	      1.83006270	     -4.03661179	     19.67034075	   -117.60239257	    183.57985783	     -0.00287716	      0.06556606	     -0.49527777	      0.05870274	     17.65112957	      0.02365562	      0.02065329	      0.09188105	     -0.02441218	      0.01493142	     28.42465467	    -63.67058366	      0.00000000	     -0.00000000	      0.00000000	      0.00000000	      0.05000000	      0.10000000	      0.05000000	      0.10000000	      0.05000000	      0.10000000	      0.05000000	      0.10000000
      0.07158477	    -34.36068800	   -480.00000000	     35.81452426	    573.68820180	      0.00000000	     -0.00000000	      0.00000000	     -0.00000000	     -0.00000000	     -0.00000000	     -0.10000000	     -0.00000000	     -0.10000000	     -0.00000000	     -0.00000000	      0.00000000	     87.71494696	    -61.97825327	      4.10920069	      2.12655888	     -3.50128589	     21.09686675	   -112.38060831	    214.69514107	     -0.00112762	      0.06700791	     -0.49358197	      0.07077279	     17.64698416	     -0.38041313	      0.02320249	      0.10208451	     -0.02400148	      0.01624101	     26.78469793	    -60.85915911	      0.00000000	      0.00000000	      0.00000000	     -0.00000000	      0.05000000	      0.10000000	      0.05000000	      0.10000000	      0.05000000	      0.10000000	      0.05000000	      0.10000000
      0.09324185	    -44.75608671	   -480.00000000	     48.11515438	    562.50617529	      0.00000000	      0.00000000	      0.00000000	      0.00000000	     -0.00000000	     -0.00000000	     -0.10000000	     -0.00000000	     -0.10000000	     -0.00000000	      0.00000000	      0.00000000	     85.97347033	    -97.97297722	      4.15627441	      2.19405953	     -3.03968530	     21.42975836	   -107.51651251	    233.46587395	      0.00029094	      0.06335576	     -0.49196025	      0.07864195	     17.63478809	     -0.73500548	      0.02546093	      0.10583193	     -0.02364876	      0.01615600	     25.52837134	    -54.74092354	     -0.00000000	     -0.00000000	     -0.00000000	     -0.00000000	      0.05000000	      0.10000000	      0.05000000	      0.10000000	      0.05000000	      0.10000000	      0.05000000	      0.10000000
      0.11489893	    -55.15148541	   -480.00000000	     60.18923828	    552.72908758	      0.00000000	     -0.00000000	      0.00000000	      0.00000000	     -0.00000000	     -0.00000000	     -0.10000000	     -0.00000000	     -0.10000000	     -0.00000000	      0.00000000	      0.00000000	     83.51200197	   -128.36127310	      4.20316493	      2.11412552	     -2.57659379	     21.27169061	   -102.31157643	    246.22944999	      0.00159278	      0.05640783	     -0.49019154	      0.08431356	     17.61592724	     -0.98265700	      0.02776118	      0.10606870	     -0.02330917	      0.01503884	     24.42692745	    -46.76377823	     -0.00000000	     -0.00000000	     -0.00000000	     -0.00000000	      0.05000000	      0.10000000	      0.05000000	      0.10000000	      0.05000000	      0.10000000	      0.05000000	      0.10000000
      0.13655601	    -65.54688412	   -480.00000000	     72.06381838	    544.00693570	     -0.00000000	     -0.00000000	      0.00000000	     -0.00000000	     -0.00000000	     -0.00000000	     -0.10000000	     -0.00000000	     -0.10000000	     -0.00000000	      0.00000000	      0.00000000	     80.45687027	   -152.77142325	      4.24701960	      1.91988592	     -2.12052555	     20.80471967	    -96.89248755	    253.27847146	      0.00271821	      0.04725009	     -0.48832549	      0.08760315	     17.59348174	     -1.05762959	      0.03003495	      0.10349517	     -0.02300414	      0.01298583	     23.50865829	    -37.96484419	     -0.00000000	     -0.00000000	     -0.00000000	     -0.00000000	      0.05000000	      0.10000000	      0.05000000	      0.10000000	      0.05000000	      0.10000000	      0.05000000	      0.10000000
      0.16368303	    -78.56785549	   -480.00000000	     86.68147463	    533.74297184	     -0.00000000	     -0.00000000	     -0.00000000	     -0.00000000	     -0.00000000	      0.00000000	     -0.10000000	     -0.00000000	     -0.10000000	     -0.00000000	      0.00000000	      0.00000000	     75.99169441	   -174.86658422	      4.29458046	      1.57227762	     -1.56734569	     19.93237423	    -89.98955641	    254.16211281	      0.00382640	      0.03431751	     -0.48593246	      0.08814812	     17.56671861	     -0.86123361	      0.03276371	      0.09717842	     -0.02269892	      0.00935027	     22.63082130	    -26.79605719	     -0.00000000	     -0.00000000	     -0.00000000	     -0.00000000	      0.05000000	      0.10000000	      0.05000000	      0.10000000	      0.05000000	      0.10000000	      0.05000000	      0.10000000
      0.19081006	    -91.58882685	   -480.00000000	    101.01646612	    522.89802754	     -0.00000000	     -0.00000000	     -0.00000000	     -0.00000000	      0.00000000	      0.00000000	     -0.10000000	      0.00000000	     -0.10000000	     -0.00000000	      0.00000000	     -0.00000000	     71.05471279	   -187.53939276	      4.33182891	      1.16970445	     -1.04172906	     18.76349870	    -83.18764054	    245.66103438	      0.00458046	      0.02141972	     -0.48358106	      0.08449523	     17.54949429	     -0.36803472	      0.03528241	      0.08809067	     -0.02251062	      0.00422015	     22.04928118	    -16.23754791	     -0.00000000	     -0.00000000	     -0.00000000	      0.00000000	      0.05000000	      0.10000000	      0.05000000	      0.10000000	      0.05000000	      0.10000000	      0.05000000	      0.10000000
      0.25434348	   -122.08487038	   -480.00000000	    133.13976838	    483.25573008	     -0.00000000	     -0.00000000	     -0.00000000	     -0.00000000	     -0.00000000	     -0.00000000	     -0.10000000	      0.00000000	     -0.10000000	     -0.00000000	      0.00000000	     -0.00000000	     59.14970954	   -177.19355278	      4.37741521	      0.32092807	      0.01427596	     13.70569290	    -69.31403927	    178.13128912	      0.00514871	     -0.00090845	     -0.47891267	      0.05814581	     17.51588803	     -1.15728955	      0.03995930	      0.05655645	     -0.02261315	     -0.00484448	     21.66044578	      1.82971534	      0.00000000	      0.00000000	      0.00000000	      0.00000000	      0.05000000	      0.10000000	      0.05000000	      0.10000000	      0.05000000	      0.10000000	      0.05000000	      0.10000000
      0.28611019	   -137.33289214	   -480.00000000	    147.96099947	    447.66881300	     -0.00000000	     -0.00000000	      0.00000000	      0.00000000	      0.00000000	     -0.00000000	     -0.10000000	      0.00000000	     -0.10000000	     -0.00000000	     -0.00000000	     -0.00000000	     53.94333766	   -147.78088996	      4.38347910	      0.08883557	      0.37636923	      8.73867850	    -64.65686190	    111.01769303	      0.00505296	     -0.00400663	     -0.47741366	      0.03519214	     17.47272009	     -1.37821785	      0.04141136	      0.03400260	     -0.02275759	     -0.00378670	     21.77114235	      4.17845280	      0.00000000	     -0.00000000	      0.00000000	     -0.00000000	      0.05000000	      0.10000000	      0.05000000	      0.10000000	      0.05000000	      0.10000000	      0.05000000	      0.10000000
      0.30393127	   -145.88701081	   -480.00000000	    155.71688718	    422.19851851	     -0.00000000	      0.00000000	      0.00000000	      0.00000000	      0.00000000	     -0.00000000	     -0.10000000	      0.00000000	     -0.10000000	      0.00000000	     -0.00000000	      0.00000000	     51.51235217	   -124.31408589	      4.38446735	      0.02940465	      0.50001277	      5.04011798	    -63.09390745	     63.37768954	      0.00498843	     -0.00294729	     -0.47692097	      0.01986431	     17.45142770	     -0.94292497	      0.04188733	      0.01919135	     -0.02281202	     -0.00224712	     21.83749486	      3.00010797	      0.00000000	     -0.00000000	      0.00000000	      0.00000000	      0.05000000	      0.10000000	      0.05000000	      0.10000000	      0.05000000	      0.10000000	      0.05000000	      0.10000000
      0.32175235	   -154.44112947	   -480.00000000	    162.99514795	    394.43553642	      0.00000000	      0.00000000	      0.00000000	     -0.00000000	     -0.00000000	     -0.00000000	     -0.10000000	      0.00000000	     -0.10000000	     -0.00000000	      0.00000000	      0.00000000	     49.53379140	    -97.29868254	      4.38472963	      0.00356977	      0.55328197	      0.88991433	    -62.42564371	     11.13688659	      0.00495587	     -0.00056743	     -0.47671204	      0.00347297	     17.44111465	     -0.17819940	      0.04208921	      0.00335634	     -0.02283586	     -0.00039965	     21.87053508	      0.57439846	     -0.00000000	     -0.00000000	      0.00000000	      0.00000000	      0.05000000	      0.10000000	      0.05000000	      0.10000000	      0.05000000	      0.10000000	      0.05000000	      0.10000000
